<svg width="25" height="25" viewBox="0 0 25 25" fill="none" xmlns="http://www.w3.org/2000/svg">
<g id="Group 2128">
<circle id="Ellipse 13" cx="12.9567" cy="12.8904" r="12.0432" fill="#43567C"/>
<g id="Group 2110">
<path id="Vector" d="M17.7671 17.7028V17.7024H17.7695V14.1723C17.7695 12.4454 17.3977 11.1151 15.3789 11.1151C14.4083 11.1151 13.757 11.6477 13.4911 12.1526H13.463V11.2763H11.5488V17.7024H13.542V14.5204C13.542 13.6826 13.7009 12.8725 14.7384 12.8725C15.7607 12.8725 15.7759 13.8286 15.7759 14.5742V17.7028H17.7671Z" fill="white"/>
<path id="Vector_2" d="M8.30286 11.2769H10.2985V17.7029H8.30286V11.2769Z" fill="white"/>
<path id="Vector_3" d="M9.29999 8.07764C8.66192 8.07764 8.14417 8.59539 8.14417 9.23347C8.14417 9.87154 8.66192 10.4001 9.29999 10.4001C9.93807 10.4001 10.4558 9.87154 10.4558 9.23347C10.4554 8.59539 9.93767 8.07764 9.29999 8.07764V8.07764Z" fill="white"/>
</g>
</g>
</svg>
