<svg width="25" height="25" viewBox="0 0 25 25" fill="none" xmlns="http://www.w3.org/2000/svg">
<g id="Group 2129">
<circle id="Ellipse 12" cx="12.4899" cy="12.8904" r="12.0432" fill="#43567C"/>
<path id="Vector" d="M18.3116 9.25519C17.8787 9.44645 17.4173 9.57322 16.9363 9.63477C17.4311 9.33726 17.8088 8.86975 17.9864 8.30624C17.525 8.58323 17.0156 8.77888 16.4728 8.88807C16.0347 8.41836 15.4103 8.12744 14.7292 8.12744C13.4077 8.12744 12.3438 9.20756 12.3438 10.5317C12.3438 10.7222 12.3599 10.9054 12.3991 11.0798C10.4147 10.9824 8.65881 10.0246 7.47923 8.56564C7.27329 8.92544 7.15249 9.33726 7.15249 9.78059C7.15249 10.613 7.57819 11.3509 8.21274 11.7782C7.82925 11.7708 7.45303 11.6587 7.1343 11.4821C7.1343 11.4894 7.1343 11.499 7.1343 11.5085C7.1343 12.6765 7.96169 13.6467 9.04667 13.8702C8.85238 13.9237 8.64062 13.9494 8.42086 13.9494C8.26804 13.9494 8.11377 13.9406 7.96896 13.9083C8.27823 14.8602 9.15583 15.56 10.1993 15.5827C9.38723 16.2225 8.3561 16.6079 7.23982 16.6079C7.04407 16.6079 6.85632 16.5991 6.66858 16.5749C7.72591 17.2615 8.979 17.6536 10.3303 17.6536C14.7227 17.6536 17.124 13.9897 17.124 10.8138C17.124 10.7076 17.1204 10.605 17.1153 10.5031C17.589 10.1646 17.9871 9.74176 18.3116 9.25519Z" fill="white"/>
</g>
</svg>
