<svg width="26" height="25" viewBox="0 0 26 25" fill="none" xmlns="http://www.w3.org/2000/svg">
<g id="Group 2130">
<circle id="Ellipse 11" cx="13.0236" cy="12.8904" r="12.0432" fill="#43567C"/>
<path id="Vector" d="M19.6901 12.8903C19.6901 9.20801 16.7058 6.22363 13.0235 6.22363C9.34119 6.22363 6.35681 9.20801 6.35681 12.8903C6.35681 16.5726 9.34119 19.557 13.0235 19.557C13.0625 19.557 13.1016 19.557 13.1407 19.5544V14.3669H11.7084V12.6976H13.1407V11.4684C13.1407 10.0439 14.0105 9.2679 15.2813 9.2679C15.8907 9.2679 16.4141 9.31217 16.5651 9.33301V10.8226H15.6901C15 10.8226 14.8646 11.1507 14.8646 11.6325V12.695H16.5183L16.3021 14.3643H14.8646V19.2992C17.6511 18.4997 19.6901 15.9346 19.6901 12.8903Z" fill="white"/>
</g>
</svg>
