<svg width="43" height="43" viewBox="0 0 43 43" fill="none" xmlns="http://www.w3.org/2000/svg">
<g id="Group 2116">
<circle id="Ellipse 2" cx="21.4706" cy="21.1044" r="20.949" fill="white"/>
<path id="Vector" fill-rule="evenodd" clip-rule="evenodd" d="M21.4701 16.077C24.4848 16.077 27.2984 17.8 29.4237 20.8152C29.5461 20.989 29.5461 21.2209 29.4237 21.3946C27.2978 24.4099 24.4846 26.1326 21.4701 26.1326C18.456 26.1326 15.6424 24.4099 13.5174 21.3951C13.395 21.2215 13.395 20.9897 13.5173 20.8159C15.6416 17.8001 18.4553 16.0768 21.4703 16.0768L21.4701 16.077ZM21.4701 17.0825C18.9956 17.0825 16.637 18.4227 14.7506 20.8405L14.5482 21.1049L14.7506 21.3708C16.5677 23.6981 18.822 25.0265 21.1957 25.1216L21.4701 25.1271C23.9442 25.1271 26.3027 23.7874 28.1903 21.37L28.3912 21.1038L28.1904 20.8397C26.373 18.5119 24.1187 17.1831 21.7446 17.088L21.4701 17.0825ZM21.4707 18.0881C23.1367 18.0881 24.4874 19.4388 24.4874 21.1048C24.4874 22.7709 23.1367 24.1216 21.4707 24.1216C19.8046 24.1216 18.454 22.7709 18.454 21.1048C18.454 19.4388 19.8046 18.0881 21.4707 18.0881ZM21.4707 19.0937C20.3599 19.0937 19.4595 19.9941 19.4595 21.1048C19.4595 22.2156 20.3599 23.116 21.4707 23.116C22.5814 23.116 23.4818 22.2156 23.4818 21.1048C23.4818 19.9941 22.5814 19.0937 21.4707 19.0937Z" fill="#223865"/>
</g>
</svg>
