<svg width="43" height="43" viewBox="0 0 43 43" fill="none" xmlns="http://www.w3.org/2000/svg">
<g id="Group 2115">
<circle id="Ellipse 3" cx="21.0757" cy="21.1044" r="20.949" fill="#223865"/>
<path id="Vector" d="M21.0774 28.7254L27.2203 22.5825C29.1671 20.6358 29.9141 18.4009 29.266 16.4542C28.7462 14.8905 27.4056 13.7688 25.7684 13.531C24.0595 13.2826 22.3801 14.0213 21.0753 15.5767C19.7726 14.0235 18.0932 13.2828 16.3822 13.531C14.7427 13.7688 13.4022 14.8905 12.8846 16.4542C12.2385 18.4029 12.9835 20.6358 14.9302 22.5825L21.0774 28.7254ZM13.8841 16.7823C14.2776 15.5975 15.2941 14.7492 16.5357 14.5684C16.6998 14.5452 16.8619 14.5326 17.026 14.5326C18.3561 14.5326 19.6524 15.3155 20.6458 16.7381L21.0772 17.3548L21.5066 16.7383C22.622 15.1409 24.1204 14.3517 25.6168 14.5686C26.8607 14.7496 27.8771 15.5977 28.2685 16.7825C28.7862 18.3398 28.1317 20.1834 26.4755 21.8374L21.0774 27.2397L15.6752 21.8393C14.021 20.183 13.3663 18.3397 13.8841 16.7823Z" fill="white"/>
</g>
</svg>
