<svg width="30" height="30" viewBox="0 0 30 30" fill="none" xmlns="http://www.w3.org/2000/svg">
<g id="Group">
<path id="Vector" d="M6.29868 14.8194L8.57462 14.8192C8.73478 14.8192 8.79143 14.9265 8.70157 15.0596L4.53553 21.1604C4.44589 21.2928 4.29916 21.2928 4.20838 21.1606L0.0432247 15.0587C-0.0475496 14.9263 0.00887189 14.8191 0.169264 14.8191H2.44771C2.47091 11.2976 4.00792 7.9601 6.67448 5.65143L9.19521 8.56254C7.37402 10.1391 6.32207 12.416 6.29866 14.8194L6.29868 14.8194Z" fill="#223865"/>
<path id="Vector_2" d="M14.7587 6.52246V8.79864C14.7587 8.9588 14.6513 9.01522 14.5187 8.9249L8.41796 4.75934C8.28532 4.66924 8.28532 4.52251 8.41796 4.43219L14.5187 0.266795C14.6518 0.176702 14.7592 0.232896 14.7592 0.39306L14.7589 2.67127C18.2807 2.69448 21.618 4.23195 23.9266 6.89852L21.0158 9.41901C19.4387 7.59805 17.1616 6.5454 14.7589 6.52245L14.7587 6.52246Z" fill="#223865"/>
<path id="Vector_3" d="M29.1838 14.9813L26.9056 14.9811C26.8824 18.5031 25.3449 21.8413 22.6783 24.15L20.1576 21.2382C21.9788 19.6616 23.0317 17.3849 23.0544 14.9807H20.7787C20.6185 14.981 20.5619 14.8738 20.6524 14.7414L24.8178 8.64125C24.9079 8.50908 25.0549 8.50908 25.1452 8.64125L29.3106 14.7414C29.4007 14.8736 29.344 14.9814 29.1838 14.9814L29.1838 14.9813Z" fill="#223865"/>
<path id="Vector_4" d="M14.5957 23.2783L14.5954 21.0021C14.5954 20.8424 14.7031 20.7853 14.8352 20.8758L20.9366 25.0412C21.069 25.1315 21.069 25.2787 20.9366 25.3686L14.8352 29.5337C14.7031 29.6241 14.5954 29.5676 14.5954 29.4075V27.1293C11.0744 27.1061 7.73699 25.5683 5.42773 22.9025L8.33932 20.3818C9.9159 22.2036 12.1921 23.2551 14.5956 23.2783L14.5957 23.2783Z" fill="#223865"/>
</g>
</svg>
