<svg width="25" height="25" viewBox="0 0 25 25" fill="none" xmlns="http://www.w3.org/2000/svg">
<g id="Group 2131">
<circle id="Ellipse 10" cx="12.5568" cy="12.8904" r="12.0432" fill="white"/>
<g id="Group">
<path id="Vector" d="M12.5569 8.66179C13.9342 8.66179 14.0973 8.66703 14.6412 8.69185C15.1441 8.7148 15.4172 8.79883 15.5989 8.86944C15.8397 8.96301 16.0115 9.0748 16.192 9.25528C16.3725 9.43576 16.4843 9.6076 16.5778 9.84834C16.6484 10.0301 16.7325 10.3032 16.7554 10.8061C16.7802 11.35 16.7855 11.5131 16.7855 12.8903C16.7855 14.2676 16.7802 14.4307 16.7554 14.9746C16.7325 15.4774 16.6484 15.7506 16.5778 15.9323C16.4843 16.1731 16.3725 16.3449 16.192 16.5254C16.0115 16.7059 15.8397 16.8177 15.5989 16.9112C15.4172 16.9818 15.1441 17.0659 14.6412 17.0888C14.0974 17.1136 13.9342 17.1189 12.5569 17.1189C11.1796 17.1189 11.0165 17.1136 10.4727 17.0888C9.96982 17.0659 9.69672 16.9818 9.51497 16.9112C9.27421 16.8177 9.10237 16.7059 8.92189 16.5254C8.74141 16.3449 8.62962 16.1731 8.53607 15.9323C8.46543 15.7506 8.38141 15.4774 8.35845 14.9746C8.33364 14.4307 8.3284 14.2676 8.3284 12.8903C8.3284 11.5131 8.33364 11.35 8.35845 10.8061C8.38141 10.3032 8.46543 10.0301 8.53607 9.84834C8.62962 9.6076 8.74141 9.43576 8.92189 9.25528C9.10237 9.0748 9.27421 8.96301 9.51497 8.86944C9.69672 8.79883 9.96982 8.7148 10.4727 8.69185C11.0166 8.66703 11.1797 8.66179 12.5569 8.66179ZM12.5569 7.73242C11.1561 7.73242 10.9805 7.73836 10.4304 7.76346C9.88133 7.78852 9.50641 7.8757 9.17831 8.00322C8.83913 8.13503 8.55149 8.31139 8.26474 8.59814C7.978 8.88488 7.80163 9.17252 7.66982 9.5117C7.54231 9.8398 7.45513 10.2147 7.43007 10.7637C7.40496 11.3139 7.39905 11.4895 7.39905 12.8903C7.39905 14.2911 7.40496 14.4668 7.43007 15.0169C7.45513 15.5659 7.54231 15.9409 7.66982 16.269C7.80163 16.6081 7.978 16.8958 8.26474 17.1825C8.55149 17.4693 8.83913 17.6456 9.17831 17.7775C9.50641 17.905 9.88133 17.9921 10.4304 18.0172C10.9805 18.0423 11.1561 18.0482 12.5569 18.0482C13.9578 18.0482 14.1334 18.0423 14.6835 18.0172C15.2325 17.9921 15.6075 17.905 15.9356 17.7775C16.2747 17.6456 16.5624 17.4693 16.8491 17.1825C17.1359 16.8958 17.3122 16.6081 17.4441 16.269C17.5716 15.9409 17.6588 15.5659 17.6838 15.0169C17.7089 14.4668 17.7149 14.2911 17.7149 12.8903C17.7149 11.4895 17.7089 11.3139 17.6838 10.7637C17.6588 10.2147 17.5716 9.8398 17.4441 9.5117C17.3122 9.17252 17.1359 8.88488 16.8491 8.59814C16.5624 8.31139 16.2747 8.13503 15.9356 8.00322C15.6075 7.8757 15.2325 7.78852 14.6835 7.76346C14.1334 7.73836 13.9578 7.73242 12.5569 7.73242ZM12.5569 10.2417C11.0941 10.2417 9.90828 11.4275 9.90828 12.8903C9.90828 14.3531 11.0941 15.539 12.5569 15.539C14.0197 15.539 15.2056 14.3531 15.2056 12.8903C15.2056 11.4275 14.0197 10.2417 12.5569 10.2417ZM12.5569 14.6096C11.6074 14.6096 10.8376 13.8399 10.8376 12.8903C10.8376 11.9408 11.6074 11.171 12.5569 11.171C13.5065 11.171 14.2763 11.9408 14.2763 12.8903C14.2763 13.8399 13.5065 14.6096 12.5569 14.6096ZM15.9292 10.137C15.9292 10.4789 15.6521 10.756 15.3102 10.756C14.9684 10.756 14.6913 10.4789 14.6913 10.137C14.6913 9.79519 14.9684 9.51809 15.3102 9.51809C15.6521 9.51809 15.9292 9.79519 15.9292 10.137Z" fill="#223865"/>
</g>
</g>
</svg>
