<svg xmlns="http://www.w3.org/2000/svg" width="559" height="370" viewBox="0 0 559 370" fill="none">
  <path d="M96.9887 15.8579C97.6004 15.6533 98.3615 15.0643 99.1225 14.4754C98.1977 14.1161 97.273 13.7568 96.3483 13.3975C97.1093 12.8086 97.721 12.604 98.0196 11.8354C99.7053 11.6057 100.794 12.9132 102.316 11.7353C102.614 10.9668 101.078 10.8121 100.765 10.2482C100.452 9.68426 100.601 9.29993 100.437 8.35171C101.511 8.32671 102.123 8.12206 103.048 8.48135C104.435 9.02029 105.047 8.81565 106.121 8.79065C108.269 8.74064 110.104 8.12672 112.863 7.87206C112.55 7.30812 112.849 6.5395 112.536 5.97557C113.61 5.95057 114.684 5.92557 115.296 5.72091C115.758 5.90056 115.907 5.51628 116.37 5.69593C118.532 6.97844 120.054 5.80055 121.427 5.00696C122.039 4.80231 122.188 4.41799 122.65 4.59763C125.872 4.52261 128.348 6.3691 131.271 7.06267C131.734 7.24231 132.047 7.80624 132.509 7.98588C134.522 9.65269 136.521 9.98701 138.819 9.55271C141.116 9.11841 143.726 9.24803 146.038 10.1463C147.425 10.6852 148.962 10.8398 150.334 10.0462C150.797 10.2258 151.259 10.4055 152.034 11.1491C154.019 10.1508 156.003 9.15261 158.926 9.84618C160.463 10.0008 161.537 9.9758 162.924 10.5147C165.847 11.2083 168.607 10.9537 171.367 10.699C175.201 10.4193 179.497 10.3193 183.181 10.424C185.792 10.5536 188.089 10.1193 190.849 9.86465C193.609 9.60999 196.831 9.53499 199.754 10.2286C199.306 11.3814 197.77 11.2268 197.158 11.4314C194.398 11.6861 191.176 11.7611 187.954 11.8361C186.418 11.6815 185.195 12.0908 183.971 12.5001C181.674 12.9344 179.526 12.9844 176.915 12.8548C173.231 12.7501 169.248 13.4141 165.876 13.8734C165.414 13.6937 165.265 14.078 165.265 14.078C164.966 14.8466 165.428 15.0263 165.891 15.2059C167.278 15.7449 168.665 16.2838 169.739 16.2588C169.739 16.2588 169.739 16.2588 170.201 16.4384C172.976 17.5163 175.422 16.6977 177.57 16.6477C181.255 16.7523 185.089 16.4726 188.609 15.629C189.221 15.4244 189.683 15.604 190.146 15.7837C193.681 16.2726 196.889 14.8651 200.26 14.4058C201.483 13.9965 202.707 13.5871 204.392 13.3575C206.078 13.1278 207.451 12.3343 208.048 10.7971C208.51 10.9767 208.973 11.1564 209.435 11.336C209.897 11.5157 210.509 11.311 210.808 10.5424C211.106 9.77384 210.644 9.59421 209.719 9.23493C210.331 9.03027 210.48 8.64601 210.943 8.82565C213.702 8.57099 216.761 7.5477 219.833 7.85698C222.444 7.98662 224.279 7.37271 226.74 7.88664C227.202 8.06629 227.352 7.68199 227.352 7.68199C229.187 7.06805 230.872 6.83835 233.184 7.73657C235.005 5.7901 237.63 7.25228 239.778 7.20228C240.091 7.76621 239.479 7.97086 239.479 7.97086C239.479 7.97086 239.479 7.97085 239.017 7.79121C236.734 9.55803 233.512 9.63305 230.29 9.70806C229.678 9.91271 229.066 10.1174 228.455 10.322C227.381 10.347 226.62 10.936 225.695 10.5767C224.621 10.6017 223.397 11.011 222.786 11.2156C222.174 11.4203 220.951 11.8295 220.503 12.9824C220.965 13.1621 220.816 13.5464 221.278 13.726C223.128 14.4446 225.276 14.3946 226.961 14.165C230.02 13.1417 233.242 13.0667 236.613 12.6074C238.911 12.1731 241.059 12.1231 243.207 12.0731L243.058 12.4574C243.058 12.4574 243.52 12.637 243.982 12.8167C243.982 12.8167 243.982 12.8167 244.132 12.4324L243.819 11.8684L243.356 11.6888C243.968 11.4841 244.117 11.0998 244.58 11.2795C246.578 11.6138 248.413 10.9998 249.786 10.2062C251.159 9.41265 252.382 9.00336 253.456 8.97835C254.53 8.95335 255.753 8.54401 256.977 8.13471C256.977 8.13471 257.126 7.75043 257.738 7.54577C257.275 7.36613 256.813 7.18651 256.351 7.00686C254.203 7.05687 252.204 6.72258 250.518 6.95223C249.906 7.15688 248.832 7.18191 248.221 7.38655C246.386 8.00051 244.238 8.0505 242.239 7.71621L241.776 7.53655C242.687 6.56332 244.536 7.28192 245.447 6.30868C246.058 6.10403 246.67 5.8994 246.67 5.8994C246.656 4.56688 247.73 4.54185 248.804 4.51685C251.265 5.03078 253.1 4.41685 255.397 3.98255C256.009 3.77789 257.083 3.75288 257.545 3.93252C258.008 4.11217 258.619 3.90749 258.768 3.52319C260.753 2.52495 263.05 2.09068 265.661 2.22032C266.735 2.19531 267.958 1.78602 269.032 1.76101C269.644 1.55636 269.957 2.12028 270.419 2.29993C270.881 2.47957 271.955 2.45456 272.418 2.6342C271.194 3.0435 270.433 3.63244 269.359 3.65745C269.836 5.16961 270.149 5.73359 270.761 5.52894C272.297 5.68359 273.521 5.27427 275.206 5.04461C276.281 5.01961 277.042 4.43068 278.429 4.96961C278.429 4.96961 278.891 5.14926 279.04 4.76497C280.875 4.15102 282.71 3.53708 284.858 3.48707C286.38 2.30918 287.767 2.84812 289.617 3.5667C290.527 2.59346 289.453 2.61843 289.14 2.05449C290.826 1.82484 292.049 1.41558 293.586 1.57022C294.66 1.54521 295.734 1.52017 296.509 2.26375C296.971 2.44339 297.434 2.62308 298.045 2.41844C298.806 1.82949 300.343 1.98412 301.104 1.39518C301.715 1.19053 302.327 0.985868 303.103 1.72945C302.491 1.9341 302.491 1.93408 301.879 2.13873C300.506 2.93232 300.67 3.88058 301.759 5.18809C303.594 4.57415 305.742 4.52414 307.577 3.91019C310.024 3.09159 312.022 3.42587 314.647 4.88803C315.423 5.63161 316.497 5.60661 317.258 5.01766C317.407 4.63337 317.556 4.24908 317.705 3.86478C317.243 3.68514 316.781 3.50553 316.781 3.50553L316.93 3.12124C317.542 2.91659 318.153 2.71192 318.616 2.89156C319.69 2.86656 320.302 2.66191 321.376 2.6369C322.599 2.2276 324.285 1.99793 325.821 2.15257C327.357 2.30721 328.431 2.28224 329.968 2.43688C331.504 2.59153 332.415 1.6183 333.638 1.209C334.712 1.184 335.935 0.774659 336.86 1.13395C338.859 1.46823 340.694 0.854333 342.066 0.0607397C343.319 2.31649 343.781 2.49611 345.765 1.49787C345.915 1.11357 346.377 1.29323 346.377 1.29323C346.377 1.29323 346.228 1.67753 346.69 1.85718L347.302 1.65248C348.525 1.24318 349.599 1.2182 350.822 0.8089C352.508 0.579246 353.895 1.11817 355.282 1.6571C355.745 1.83674 356.058 2.4007 355.908 2.78499C356.221 3.34893 356.385 4.29715 356.549 5.24538C355.788 5.83432 355.489 6.60294 354.728 7.19187C354.579 7.57616 354.743 8.52439 355.817 8.49938C356.279 8.67902 356.279 8.67904 356.891 8.47439C358.577 8.24474 360.262 8.01506 361.486 7.60576C362.858 6.81217 364.395 6.96686 365.632 7.89008C367.93 7.45578 369.765 6.84179 372.226 7.35573C374.673 6.53713 377.745 6.84639 380.341 5.6435C380.192 6.0278 380.505 6.59175 380.356 6.97604C380.669 7.53999 381.131 7.71962 381.907 8.4632C383.443 8.61784 385.129 8.38823 386.665 8.54287C386.978 9.1068 386.829 9.49106 387.142 10.055C387.455 10.6189 388.23 11.3625 388.842 11.1579C389.916 11.1329 390.677 10.5439 391.452 11.2875C389.468 12.2857 387.171 12.7201 384.71 12.2061C382.249 11.6922 379.951 12.1265 377.803 12.1765C377.191 12.3811 376.117 12.4062 375.968 12.7905C374.909 14.148 373.834 14.173 372.298 14.0183C370.15 14.0684 367.853 14.5027 366.494 16.6288C366.196 17.3974 366.509 17.9613 367.433 18.3206C368.821 18.8595 369.895 18.8345 371.282 19.3735C371.893 19.1688 372.654 18.5798 373.266 18.3752C375.4 16.9927 378.01 17.1223 380.784 18.2002C381.247 18.3798 382.171 18.7391 382.783 18.5345C383.395 18.3298 383.544 17.9455 384.305 17.3566C384.454 16.9723 384.454 16.9723 384.604 16.588C385.066 16.7676 385.066 16.7676 385.528 16.9473C387.079 18.4345 388.765 18.2048 390.6 17.5909C391.212 17.3862 391.361 17.0019 391.973 16.7972C392.584 16.5926 392.734 16.2083 393.196 16.388C396.269 16.6972 397.776 14.1868 400.074 13.7525L400.372 12.984C400.372 12.984 399.597 12.2404 399.448 12.6246C398.374 12.6496 397.299 12.6747 396.539 13.2636C395.927 13.4683 395.315 13.6729 394.704 13.8776C394.077 12.7497 393.302 12.0061 393.138 11.0579C395.436 10.6236 398.046 10.7532 400.03 9.75494C400.642 9.55029 401.104 9.72998 402.179 9.70497C403.864 9.47532 405.55 9.24566 407.086 9.4003C408.16 9.37529 408.921 8.78637 410.159 9.70959L411.233 9.68455C411.994 9.09561 412.904 8.12241 413.665 7.53346C414.277 7.32881 415.202 7.68811 415.813 7.48346C417.037 7.07416 417.335 6.30555 418.096 5.71661C419.021 6.07589 420.095 6.05088 420.707 5.84624C420.408 6.61482 420.572 7.56305 419.811 8.15199C418.751 9.50952 419.228 11.0217 420.018 13.0978C420.495 14.61 421.121 15.7378 421.598 17.25C422.522 17.6093 423.447 17.9686 424.208 17.3796C425.581 16.5861 426.953 15.7925 428.788 15.1785C430.176 15.7175 429.578 17.2546 430.354 17.9982C431.278 18.3575 432.203 18.7168 433.59 19.2557C433.455 20.9725 433.932 22.4847 431.948 23.4829C431.336 23.6876 431.649 24.2516 431.038 24.4562C432.126 25.7637 433.662 25.9183 434.587 26.2776C434.9 26.8416 435.213 27.4055 435.526 27.9694C435.704 30.2502 438.016 31.1484 440.015 31.4827C441.551 31.6373 443.401 32.3559 444.788 32.8948C445.713 33.2541 447.249 33.4088 447.861 33.2041C449.696 32.5902 451.381 32.3606 452.441 31.003C453.351 30.0298 455.649 29.5955 456.872 29.1862C459.646 30.264 459.362 32.3652 460.913 33.8523C459.839 33.8773 458.615 34.2866 458.004 34.4913C457.705 35.2598 457.869 36.2081 456.183 36.4377C455.571 36.6424 455.422 37.0267 455.586 37.9749C455.75 38.9231 456.212 39.1028 457.137 39.4621C458.062 39.8214 458.673 39.6167 459.598 39.976C461.597 40.3103 462.82 39.901 464.193 39.1074C464.954 38.5185 465.565 38.3138 466.177 38.1091C467.4 37.6998 467.699 36.9313 469.072 36.1377C470.146 36.1127 471.07 36.4719 472.607 36.6266C473.204 35.0894 475.039 34.4755 477.038 34.8098C477.963 35.1691 478.574 34.9644 479.648 34.9394C482.259 35.0691 482.87 34.8644 484.228 32.7383C483.602 31.6104 482.827 30.8668 481.739 29.5593C482.649 28.5861 483.097 27.4332 483.858 26.8442C483.232 25.7163 482.456 24.9728 481.681 24.2292C480.906 23.4857 479.668 22.5624 478.892 21.8188C477.655 20.8956 476.73 20.5363 475.03 19.4334C474.717 18.8695 474.403 18.3055 473.941 18.1259C473.628 17.562 473.166 17.3823 472.853 16.8184C473.151 16.0498 473.45 15.2812 473.286 14.333C475.285 14.6673 477.134 15.3859 478.074 17.0777C478.074 17.0777 478.387 17.6416 478.849 17.8213C480.385 17.9759 481.011 19.1038 481.638 20.2316C481.951 20.7956 482.875 21.1548 483.188 21.7188C484.575 22.2577 485.813 23.181 487.2 23.7199C487.663 23.8996 488.125 24.0792 488.587 24.2588C490.124 24.4135 491.362 25.3367 492.749 25.8756C493.673 26.2349 493.986 26.7988 494.613 27.9267C494.314 28.6953 493.553 29.2842 493.404 29.6685C493.254 30.0528 494.03 30.7964 494.343 31.3604C494.194 31.7447 493.731 31.565 493.582 31.9493C492.358 32.3586 491.747 32.5632 492.224 34.0754C492.387 35.0236 492.551 35.9719 492.252 36.7405C491.655 38.2776 490.745 39.2509 490.148 40.788C490.461 41.352 491.698 42.2752 491.25 43.4281C491.101 43.8124 491.414 44.3763 491.877 44.556C493.114 45.4792 493.741 46.6071 493.904 47.5553C494.217 48.1193 494.53 48.6832 495.142 48.4785C496.067 48.8378 496.365 48.0692 496.515 47.685C496.664 47.3007 496.963 46.5321 496.65 45.9681C496.799 45.5838 496.948 45.1995 496.784 44.2513C499.395 44.3809 500.483 45.6885 502.034 47.1756C502.81 47.9192 502.973 48.8674 503.599 49.9953C503.152 51.1482 503.151 51.1482 504.404 53.4039C507.626 53.3289 510.848 53.2539 514.219 52.7946C514.682 52.9742 515.457 53.7178 515.919 53.8974C517.62 55.0003 518.231 54.7957 519.604 54.0021C519.753 53.6178 520.365 53.4132 520.514 53.0289C521.901 53.5678 523.751 54.2864 525.422 52.7242C525.586 53.6724 525.436 54.0567 525.436 54.0567C524.377 55.4143 523.63 57.3357 521.646 58.334C521.034 58.5386 520.885 58.9229 520.736 59.3072C519.064 60.8694 518.467 62.4065 518.645 64.6873C518.347 65.4559 519.122 66.1994 519.286 67.1477C518.077 68.8895 516.555 70.0674 514.571 71.0656C513.198 71.8592 511.676 73.0371 510.766 74.0103C509.706 75.3678 508.796 76.3411 506.961 76.955C506.349 77.1597 505.588 77.7486 505.289 78.5172C504.23 79.8748 505.02 81.9508 504.422 83.488C504.124 84.2566 504.75 85.3845 505.838 86.692L506.151 87.2559C505.867 89.357 504.808 90.7146 503.599 92.4564C503.3 93.225 502.077 93.6343 501.003 93.6593C499.929 93.6843 498.855 93.7093 497.169 93.939C494.409 94.1936 492.425 95.1919 491.529 97.4976C491.38 97.8819 491.38 97.8819 491.23 98.2662C491.23 98.2662 491.23 98.2662 491.081 98.6505C491.856 99.3941 492.483 100.522 493.258 101.266C491.885 102.059 490.662 102.468 489.901 103.057C489.453 104.21 490.84 104.749 491.004 105.697C490.854 106.082 490.392 105.902 490.243 106.286L490.392 105.902C489.78 106.107 488.856 105.747 488.393 105.568C487.931 105.388 487.931 105.388 487.469 105.208C487.319 105.593 487.319 105.593 487.17 105.977C486.26 106.95 485.022 106.027 484.112 107C483.962 107.385 483.664 108.153 484.439 108.897C485.677 109.82 486.751 109.795 488.287 109.95C488.899 109.745 488.899 109.745 489.511 109.54C491.033 108.362 493.017 107.364 494.39 106.571C495.762 105.777 497.448 105.547 499.134 105.318C500.208 105.293 501.132 105.652 501.908 106.396C502.37 106.575 502.52 106.191 502.982 106.371L503.295 106.934C502.086 108.676 503.025 110.368 502.89 112.085C502.279 112.29 502.279 112.29 501.667 112.494C500.593 112.519 500.757 113.467 500.458 114.236C499.384 114.261 498.459 113.902 497.549 114.875C497.549 114.875 497.087 114.695 496.937 115.08C496.937 115.08 496.937 115.08 497.4 115.259C497.4 115.259 497.549 114.875 498.011 115.055C498.474 115.234 498.787 115.798 499.249 115.978C498.638 116.183 498.026 116.387 497.414 116.592C496.802 116.796 496.653 117.181 496.354 117.949C496.056 118.718 495.608 119.871 494.072 119.716C493.46 119.921 492.848 120.125 492.699 120.51C492.863 121.458 493.026 122.406 493.653 123.534C493.653 123.534 493.19 123.354 493.041 123.739L493.19 123.354C493.653 123.534 493.652 123.534 493.965 124.098C494.279 124.662 494.741 124.842 495.502 124.253C495.502 124.253 495.964 124.432 496.114 124.048C495.964 124.432 495.203 125.021 495.054 125.406C494.442 125.61 493.831 125.815 493.681 126.199C494.009 128.096 494.009 128.096 492.636 128.889C491.875 129.478 491.427 130.631 490.353 130.656C489.742 130.861 490.218 132.373 490.83 132.168C491.904 132.143 493.142 133.066 493.455 133.63C493.306 134.015 493.007 134.783 492.858 135.168C492.395 134.988 492.395 134.988 491.933 134.808C491.158 134.065 490.382 133.321 489.009 134.115C488.86 134.499 489.322 134.679 489.024 135.447C487.95 135.472 486.876 135.497 485.339 135.343C484.891 136.495 485.667 137.239 485.98 137.803C485.831 138.187 485.532 138.956 485.383 139.34C485.233 139.724 484.771 139.545 484.771 139.545C483.085 139.774 482.026 141.132 481.428 142.669C481.13 143.438 482.368 144.361 482.979 144.156C484.814 143.542 487.126 144.441 489.125 144.775C490.199 144.75 490.945 142.828 493.257 143.727C492.66 145.264 491.75 146.237 489.602 146.287C489.467 148.004 492.689 147.929 492.091 149.466C490.555 149.311 489.168 148.772 488.542 147.645C488.229 147.081 487.304 146.721 487.006 147.49C487.319 148.054 487.632 148.618 487.795 149.566C488.108 150.13 487.959 150.514 488.422 150.694C490.733 151.592 491.374 154.053 493.536 155.335C493.999 155.515 494.162 156.463 493.551 156.668C492.477 156.693 491.865 156.897 490.955 157.87C490.806 158.255 490.044 158.844 489.433 159.048C491.759 161.279 493.623 163.33 496.397 164.408C496.859 164.588 497.322 164.767 497.933 164.563C499.619 164.333 501.767 164.283 503.304 164.438C503.915 164.233 504.378 164.413 504.989 164.208C506.824 163.594 508.212 164.133 509.151 165.825C509.464 166.389 510.09 167.517 510.716 168.645C510.567 169.029 510.268 169.797 509.507 170.386C509.82 170.95 510.282 171.13 510.595 171.694C515.026 169.877 519.607 167.676 524.5 166.039C525.126 167.167 525.752 168.294 526.378 169.422C527.602 169.013 529.287 168.783 529.899 168.579C530.361 168.758 530.362 168.758 530.824 168.938C531.45 170.066 531.763 170.63 532.389 171.758C533.015 172.886 534.239 172.476 534.865 173.604C535.178 174.168 536.714 174.323 537.49 175.066C537.653 176.015 536.892 176.603 536.444 177.756C536.146 178.525 535.385 179.114 535.086 179.882C534.489 181.42 533.579 182.393 531.744 183.007C529.162 185.542 525.641 186.386 522.434 187.793C521.822 187.998 521.21 188.203 520.912 188.971C520.314 190.508 519.404 191.482 517.569 192.096C517.569 192.096 517.42 192.48 516.957 192.3C515.585 193.094 515.599 194.426 516.837 195.35C517.299 195.529 517.612 196.093 518.075 196.273C517.925 196.657 517.463 196.477 517.314 196.862C517.328 198.194 516.88 199.347 516.119 199.936C516.596 201.448 517.535 203.14 518.012 204.652C519.399 205.191 520.786 205.73 522.337 207.217C522.188 207.602 522.038 207.986 521.427 208.191C520.815 208.395 519.592 208.804 518.98 209.009C517.757 209.418 516.996 210.007 516.697 210.776C517.01 211.34 517.323 211.904 518.098 212.647C517.337 213.236 516.726 213.441 516.577 213.825C516.278 214.594 517.679 216.465 518.604 216.825C519.067 217.004 519.529 217.184 519.678 216.8C521.051 216.006 522.9 216.725 524.138 217.648C524.913 218.391 526.301 218.93 527.076 219.674C527.688 219.469 528.762 219.444 529.373 219.24C530.611 220.163 530.775 221.111 531.088 221.675C530.789 222.444 529.865 222.084 529.253 222.289C527.418 222.903 526.045 223.696 523.733 222.798C523.271 222.619 522.659 222.823 522.048 223.028C520.824 223.437 519.75 223.462 518.527 223.872C517.915 224.076 517.154 224.665 516.543 224.87C516.095 226.023 518.093 226.357 516.721 227.151C517.183 227.33 517.034 227.714 517.496 227.894C518.883 228.433 520.42 228.588 521.643 228.178C524.403 227.924 526.7 227.489 529.624 228.183C532.547 228.877 535.307 228.622 538.216 227.983C539.29 227.958 540.364 227.933 541.438 227.908C542.974 228.063 543.899 228.422 545.436 228.576C546.51 228.551 546.972 228.731 547.897 229.09C547.747 229.475 547.136 229.679 547.598 229.859C548.537 231.551 548.253 233.652 550.266 235.319C551.653 235.858 553.04 236.397 553.951 235.423C554.861 234.45 555.16 233.682 553.907 231.426C554.981 231.401 555.593 231.196 556.219 232.324C556.532 232.888 556.845 233.452 557.308 233.632C557.621 234.195 557.934 234.759 558.247 235.323C557.948 236.092 557.649 236.861 557.351 237.629C557.052 238.398 556.754 239.166 557.38 240.294C557.693 240.858 557.543 241.242 557.857 241.806C558.184 243.703 558.049 245.42 557.303 247.341C555.795 249.851 554.287 252.362 552.467 254.308C550.497 256.639 549.139 258.765 547.631 261.276C546.721 262.249 545.811 263.222 544.9 264.195C542.617 265.962 540.797 267.909 538.514 269.675C536.693 271.622 533.948 273.209 532.277 274.771C529.233 277.127 525.563 278.355 522.206 280.147C520.072 281.529 517.476 282.732 515.805 284.294C513.522 286.061 510.463 287.084 507.867 288.287C504.809 289.311 502.675 290.693 500.392 292.46C500.243 292.844 499.781 292.665 499.631 293.049C498.273 295.175 498.273 295.175 496.289 296.173C496.139 296.557 496.453 297.121 496.453 297.121C496.616 298.07 496.318 298.838 495.094 299.248C493.871 299.657 492.498 300.45 491.588 301.424C490.827 302.013 490.678 302.397 490.841 303.345C491.005 304.293 490.244 304.882 489.633 305.087C488.409 305.496 487.648 306.085 486.425 306.495C483.978 307.313 481.069 307.952 478.459 307.822C477.996 307.643 477.847 308.027 477.385 307.847C475.386 307.513 473.551 308.127 471.865 308.357C470.03 308.971 467.882 309.021 466.047 309.635C463.138 310.274 460.378 310.528 458.245 311.911C455.634 311.781 454.112 312.959 451.815 313.393C449.518 313.828 447.683 314.442 445.848 315.056C442.789 316.079 439.731 317.102 436.672 318.125C434.226 318.944 431.317 319.583 428.721 320.786C427.96 321.375 426.572 320.836 425.662 321.809C424.901 322.398 423.678 322.807 422.455 323.216C421.231 323.626 420.47 324.215 419.247 324.624C418.635 324.829 418.024 325.033 417.412 325.238C414.503 325.877 412.369 327.259 409.922 328.078C405.043 331.048 398.912 331.762 393.557 333.219C390.036 334.063 386.515 334.906 382.994 335.75C382.084 336.723 380.235 336.005 378.862 336.798C377.952 337.772 375.953 337.437 374.73 337.847C373.506 338.256 371.82 338.485 370.597 338.895C369.374 339.304 368.15 339.713 367.389 340.302C365.256 341.685 362.809 342.503 360.512 342.938C356.991 343.781 353.933 344.805 350.561 345.264C349.964 346.801 349.054 347.774 347.368 348.004C343.847 348.848 340.177 350.075 336.656 350.919C336.194 350.739 336.045 351.124 335.582 350.944C332.062 351.788 328.079 352.452 324.558 353.295C321.649 353.934 318.74 354.573 315.98 354.828C315.055 354.468 314.757 355.237 314.145 355.442C313.832 354.878 313.832 354.878 313.22 355.082C313.071 355.467 313.071 355.467 312.922 355.851C308.789 356.899 304.806 357.563 300.211 358.432C295.005 359.505 290.112 361.142 284.592 361.652C283.518 361.677 282.145 362.47 280.922 362.879C279.699 363.289 279.087 363.493 278.013 363.518C276.79 363.928 275.253 363.773 273.568 364.003C270.047 364.846 266.213 365.126 262.23 365.79C258.859 366.249 255.338 367.093 251.966 367.552C249.669 367.986 247.372 368.421 244.761 368.291C243.687 368.316 242.151 368.161 241.077 368.186C240.465 368.391 239.54 368.032 239.391 368.416C238.481 369.389 237.556 369.03 236.482 369.055C234.334 369.105 234.334 369.105 234.156 366.824C234.917 366.235 235.991 366.21 236.752 365.621C238.124 364.828 239.661 364.983 241.51 365.701C241.973 365.881 242.897 366.24 243.509 366.035C246.418 365.396 248.716 364.962 251.162 364.144C251.162 364.144 251.162 364.143 251.774 363.939C252.072 363.17 252.222 362.786 252.058 361.838C251.596 361.658 251.596 361.658 251.133 361.478C246.837 361.578 243.003 361.858 238.707 361.958C235.948 362.213 233.486 361.699 230.727 361.954C228.579 362.004 226.431 362.054 224.282 362.104C223.208 362.129 222.746 361.949 221.672 361.974C221.821 361.59 221.821 361.59 221.971 361.205C222.12 360.821 222.269 360.437 221.807 360.257C221.494 359.693 221.032 359.514 220.569 359.334C220.107 359.154 219.495 359.359 219.033 359.179C216.422 359.05 214.274 359.1 211.799 357.253C211.649 357.637 210.888 358.226 210.739 358.611C207.055 358.506 203.37 358.401 199.074 358.501C198.462 358.706 197.538 358.347 196.613 357.988C195.688 357.628 195.375 357.064 194.45 356.705C193.988 356.525 192.914 356.55 191.989 356.191C192.601 355.986 192.75 355.602 192.9 355.218C193.661 354.629 194.272 354.424 194.109 353.476C193.795 352.912 194.094 352.144 194.706 351.939C196.541 351.325 196.377 350.377 196.363 349.044C196.512 348.66 196.661 348.276 196.348 347.712C195.722 346.584 194.335 346.045 193.097 345.122C192.635 344.942 192.173 344.762 191.561 344.967C190.024 344.812 188.95 344.837 187.727 345.247C187.265 345.067 186.191 345.092 185.728 344.912C184.804 344.553 184.804 344.553 184.476 342.657C186.311 342.043 187.684 341.249 187.356 339.353C187.029 337.456 186.701 335.56 183.778 334.866C185.464 334.636 186.075 334.432 186.836 333.843C188.209 333.049 188.194 331.717 186.807 331.178C185.42 330.639 183.571 329.92 181.885 330.15C180.349 329.995 179.125 330.405 177.44 330.634C176.977 330.455 176.515 330.275 175.74 329.531C175.889 329.147 175.426 328.967 175.426 328.967C176.486 327.61 176.934 326.457 177.994 325.1C176.294 323.997 175.817 322.484 175.952 320.768C176.101 320.383 176.4 319.615 176.862 319.794C178.085 319.385 178.533 318.232 178.981 317.079C178.668 316.515 178.355 315.951 178.042 315.388C173.582 314.539 169.435 314.255 165.139 314.355C164.065 314.38 162.379 314.61 161.305 314.635C160.992 314.071 161.142 313.687 161.604 313.866C162.678 313.841 163.29 313.637 164.364 313.612C166.049 313.382 167.273 312.973 167.721 311.82C167.408 311.256 167.244 310.307 166.931 309.744C167.08 309.359 167.379 308.591 167.99 308.386C169.214 307.977 169.512 307.208 169.349 306.26C169.498 305.876 169.647 305.491 169.797 305.107C170.871 305.082 172.094 304.673 172.706 304.468C173.78 304.443 174.541 303.854 174.839 303.086C175.138 302.317 174.825 301.753 174.199 300.625C172.662 300.471 171.126 300.316 170.216 301.289C169.305 302.262 167.62 302.492 166.233 301.953C164.383 301.235 163.011 302.028 162.1 303.001C161.026 303.026 160.564 302.847 159.49 302.872C158.565 302.512 157.953 302.717 156.73 303.126C155.507 303.536 154.433 303.561 152.896 303.406C149.062 303.686 145.378 303.581 141.544 303.861C140.47 303.886 139.709 304.475 138.635 304.5C137.561 304.525 136.8 305.114 136.025 304.37C135.562 304.19 134.951 304.395 134.951 304.395C132.817 305.778 129.744 305.468 127.447 305.903C123.464 306.567 119.63 306.846 115.796 307.126C114.722 307.151 113.499 307.56 112.276 307.969C111.664 308.174 110.441 308.583 109.829 308.788C109.217 308.993 108.755 308.813 108.456 309.582C108.307 309.966 107.695 310.171 107.233 309.991C105.696 309.836 103.698 309.502 101.699 309.168C99.7002 308.833 98.1638 308.679 96.4781 308.908C95.404 308.933 94.1806 309.343 92.7936 308.804C92.9429 308.42 93.0922 308.035 93.8532 307.446C91.3776 305.6 89.3644 303.933 85.993 304.392C85.6799 303.828 84.9046 303.085 84.5915 302.521C83.6668 302.162 82.5927 302.187 81.9811 302.391C81.3694 302.596 80.4447 302.237 80.1317 301.673C79.3562 300.929 78.8939 300.749 77.8199 300.774C76.2834 300.62 75.2095 300.645 73.9717 299.722C73.3456 298.594 73.6442 297.825 74.4052 297.236C75.4648 295.879 75.9127 294.726 75.5852 292.829C75.4215 291.881 75.7201 291.113 76.6304 290.139C78.3017 288.577 77.9887 288.013 76.5872 286.142C76.2741 285.578 75.4986 284.834 74.8869 285.039C73.9622 284.68 72.8882 284.705 72.2765 284.909C71.8141 284.73 71.2025 284.934 70.5908 285.139C67.3687 285.214 67.205 284.266 66.7282 282.753C66.4152 282.19 66.4151 282.19 66.1021 281.626C63.6265 279.779 61.3147 278.881 58.4056 279.52C57.794 279.724 57.3317 279.545 56.8693 279.365C55.0199 278.647 53.4834 278.492 51.4847 278.158C48.8743 278.028 47.0249 277.31 45.7727 275.054C44.9972 274.31 44.6842 273.746 43.2971 273.207C42.3724 272.848 42.2086 271.9 42.9696 271.311C43.8799 270.338 45.2525 269.544 46.4758 269.135C47.2368 268.546 47.5355 267.777 47.3717 266.829C47.208 265.881 47.5067 265.112 47.8054 264.344C47.9402 262.627 47.3141 261.499 45.4646 260.78C43.6152 260.062 42.0788 259.907 40.2293 259.188C39.3046 258.829 38.8422 258.65 37.9175 258.29C36.6797 257.367 34.8303 256.648 33.4432 256.11C32.9808 255.93 32.0561 255.571 31.2807 254.827C29.8792 252.956 28.179 251.853 27.3892 249.777C26.7631 248.649 26.1371 247.521 24.75 246.982C24.2876 246.802 23.9745 246.238 23.6615 245.674C23.4833 243.394 24.543 242.036 26.378 241.422C27.139 240.833 27.8999 240.244 28.6609 239.655C29.4219 239.066 30.6452 238.657 31.7192 238.632C32.9426 238.223 33.7037 237.634 34.7633 236.276C31.9891 235.198 29.5135 233.352 26.4552 234.375C25.5304 234.016 25.2174 233.452 24.7551 233.272C25.0537 232.504 25.203 232.119 25.3523 231.735C25.8002 230.582 26.7105 229.609 26.6961 228.277C26.6817 226.944 27.4427 226.355 28.353 225.382C31.8593 223.206 35.6785 221.594 39.1848 219.417C39.9458 218.828 41.4822 218.983 42.2432 218.394C43.4666 217.985 43.7653 217.216 42.5275 216.293C42.2145 215.729 41.2896 215.37 40.8273 215.19C37.4558 215.65 35.3366 218.365 31.6522 218.26C31.4884 217.312 30.8624 216.184 30.6986 215.236C30.0869 215.44 29.6246 215.261 29.013 215.465C26.5663 216.284 24.5819 217.282 22.2845 217.716C21.0612 218.126 20.3001 218.715 20.3146 220.047C20.0159 220.816 19.8666 221.2 19.568 221.969C19.4187 222.353 19.2694 222.737 19.5825 223.301C19.7462 224.249 19.1345 224.454 18.3735 225.043C17.7618 225.248 16.8371 224.888 16.5241 224.324C15.898 223.197 15.1225 222.453 14.4964 221.325C15.5561 219.968 15.0793 218.455 16.6013 217.277C16.7506 216.893 17.0492 216.125 16.7361 215.561C16.2593 214.048 16.8567 212.511 17.767 211.538C17.767 211.538 17.767 211.538 17.9163 211.154C16.8279 209.846 17.738 208.873 17.2612 207.361C16.7989 207.181 16.4859 206.617 16.0235 206.438C13.548 204.591 13.548 204.591 10.6389 205.23C10.4752 204.282 11.0869 204.077 11.6985 203.873C13.5336 203.259 14.7568 202.849 16.5919 202.235C19.6502 201.212 22.7086 200.189 26.2294 199.345C29.8994 198.117 33.4202 197.274 36.6279 195.866C37.2395 195.662 37.3889 195.277 37.3889 195.277C37.5382 194.893 37.0758 194.713 36.6134 194.534C35.6887 194.175 34.7639 193.815 33.6899 193.84C33.2275 193.661 32.3028 193.301 31.6912 193.506C31.3781 192.942 31.3781 192.942 31.5274 192.558C31.2144 191.994 30.9014 191.43 30.5883 190.866C29.8129 190.122 28.7389 190.147 28.1272 190.352C26.9038 190.761 26.1429 191.35 24.9195 191.759C24.1585 192.348 23.0845 192.373 22.3235 192.962C20.4885 193.576 18.8027 193.806 16.9677 194.42C15.1327 195.034 14.0732 196.391 12.7005 197.185C11.9395 197.774 11.1785 198.363 9.79144 197.824C8.55366 196.901 8.38981 195.952 8.68844 195.184C8.98706 194.415 9.59882 194.211 10.6729 194.186C11.8962 193.776 13.1196 193.367 14.3429 192.958C16.178 192.344 17.6999 191.166 19.6987 191.5C20.3103 191.296 20.9219 191.091 21.5336 190.886C22.1453 190.682 22.757 190.477 23.3687 190.272C25.3675 190.607 26.2777 189.633 27.6503 188.84C28.8737 188.431 29.3216 187.278 28.6955 186.15C28.5318 185.202 27.9057 184.074 27.2796 182.946C26.6535 181.818 25.7289 181.459 24.3418 180.92C23.865 179.408 24.3129 178.255 25.2232 177.281C26.1335 176.308 27.6554 175.13 29.6541 175.465C30.7282 175.44 31.3398 175.235 32.4139 175.21C34.7112 174.776 36.397 174.546 38.7088 175.444C39.1712 175.624 39.7828 175.419 40.2452 175.599C44.079 175.319 47.9128 175.039 51.7465 174.76C53.8946 174.71 55.7296 174.096 57.8777 174.046C62.7855 173.741 67.3803 172.873 71.9751 172.004C74.2724 171.57 76.5699 171.135 78.7035 169.753C79.3152 169.548 79.4645 169.164 79.7631 168.395C77.6006 167.113 75.2887 166.215 72.842 167.033C71.1563 167.263 69.7837 168.056 68.0836 166.954C68.6952 166.749 69.9185 166.34 70.5302 166.135C72.2159 165.905 74.0511 165.291 75.7368 165.062C78.6458 164.423 81.2418 163.22 84.1509 162.581C86.4482 162.147 88.4326 161.148 90.4169 160.15C91.7896 159.357 93.1621 158.563 94.8478 158.333C96.0712 157.924 96.0713 157.924 97.1309 156.567C96.8178 156.003 96.3555 155.823 95.2815 155.848C91.4477 156.128 87.4646 156.792 83.7946 158.019C81.9595 158.633 80.2738 158.863 78.9011 159.657C78.2894 159.861 77.6778 160.066 77.2154 159.886C75.0674 159.936 73.2323 160.55 70.9349 160.985C68.0259 161.623 65.5792 162.442 62.3571 162.517C62.044 161.953 62.6557 161.748 62.6557 161.748C65.1024 160.93 67.5491 160.111 69.9958 159.293C70.6075 159.088 71.2192 158.883 72.2932 158.858C75.0529 158.604 77.4997 157.785 79.3203 155.839C79.4696 155.454 80.6929 155.045 81.3045 154.84C81.4538 154.456 81.6032 154.072 82.2149 153.867C82.0511 152.919 80.9771 152.944 80.3654 153.149C78.6797 153.378 76.8446 153.992 75.6213 154.402C74.2486 155.195 72.563 155.425 71.0266 155.27C69.9525 155.295 68.7292 155.704 67.6551 155.729C67.0434 155.934 66.5811 155.754 65.6564 155.395C66.5667 154.422 68.2524 154.192 69.0134 153.603C70.2367 153.194 71.46 152.785 71.908 151.632C71.5949 151.068 71.1326 150.888 70.521 151.093C69.4469 151.118 68.8351 151.323 68.2235 151.527C66.5378 151.757 64.7027 152.371 62.5547 152.421C61.4806 152.446 60.869 152.65 59.6456 153.06C57.3482 153.494 55.5132 154.108 53.6782 154.722C49.6951 155.386 46.4874 156.793 42.5044 157.457C41.8927 157.662 40.6693 158.071 39.7446 157.712C39.2823 157.532 38.82 157.353 38.9693 156.969C38.6562 156.405 38.8055 156.02 38.9548 155.636C39.1041 155.252 39.7157 155.047 40.3274 154.842C43.8481 153.999 46.7428 152.027 50.2635 151.184C51.4869 150.774 52.7102 150.365 53.6205 149.392C54.3815 148.803 55.6048 148.394 56.2165 148.189C57.4398 147.78 59.2749 147.166 60.9606 146.936C62.6464 146.706 63.5566 145.733 64.1539 144.196C63.8408 143.632 63.0655 142.889 62.7524 142.325C62.29 142.145 62.29 142.145 61.6783 142.35C56.3225 143.807 51.1162 144.88 45.7605 146.338C45.1488 146.543 44.6863 146.363 44.0747 146.568C42.3889 146.797 41.9267 146.618 41.1368 144.541C44.8069 143.314 48.0145 141.906 50.283 138.807C49.8207 138.627 49.3582 138.447 49.3582 138.447C46.2855 138.138 43.8387 138.957 41.079 139.211C39.3933 139.441 38.17 139.85 36.6336 139.696C37.0815 138.543 39.2296 138.493 39.9906 137.904C42.5866 136.701 45.4957 136.062 47.7787 134.295C48.5397 133.706 49.763 133.297 50.3747 133.092C52.2097 132.478 54.0447 131.864 54.3289 129.763C54.6275 128.995 54.9262 128.226 55.2248 127.458C54.4349 125.381 52.5855 124.663 50.4374 124.713C48.2893 124.763 46.2905 124.429 44.4411 123.71C43.5163 123.351 42.4424 123.376 41.3684 123.401C39.6827 123.63 37.8332 122.912 36.8941 121.22C36.1187 120.476 35.4926 119.349 35.1795 118.785C34.5534 117.657 33.778 116.913 33.1519 115.785C32.0778 115.81 31.6155 115.631 31.0038 115.835C29.7805 116.245 28.3933 115.706 27.1555 114.782C27.9165 114.193 28.2152 113.425 28.9762 112.836C28.4994 111.324 28.0226 109.812 28.6199 108.274C28.9185 107.506 28.6054 106.942 28.4417 105.994C28.4272 104.661 28.8752 103.508 30.0986 103.099C30.7102 102.894 31.6205 101.921 32.2322 101.716C32.9931 101.127 32.5164 99.6154 31.5917 99.2561C30.667 98.8968 29.5929 98.9218 28.9812 99.1264C27.4448 98.9718 26.2214 99.3811 24.685 99.2264C22.9993 99.4561 21.463 99.3014 20.0759 98.7625C18.6888 98.2236 17.3018 97.6847 17.2873 96.3522C17.1236 95.4039 15.5872 95.2493 14.9611 94.1214C15.8714 93.1482 16.7817 92.1749 18.005 91.7656C19.84 91.1517 21.2127 90.3581 21.3475 88.6413C20.5721 87.8977 19.946 86.7698 19.1706 86.0262C17.4705 84.9233 15.7993 86.4856 13.3382 85.9716C14.5615 85.5623 15.3225 84.9734 16.0835 84.3844L16.2328 84.0001C16.517 81.899 16.2039 81.3351 13.8921 80.4369C13.4297 80.2572 12.9674 80.0776 12.505 79.8979C12.0427 79.7183 11.118 79.359 10.5063 79.5637C9.73089 78.8201 10.0294 78.0515 10.3281 77.2829C10.6267 76.5143 11.3877 75.9254 11.0746 75.3614C11.0602 74.0289 11.2095 73.6446 12.4329 73.2353C13.0446 73.0307 13.1939 72.6464 13.3432 72.2621C14.2535 71.2889 15.0145 70.6999 16.7002 70.4703C18.8483 70.4203 20.8326 69.422 22.5183 69.1924C22.5183 69.1924 22.5183 69.1923 22.0559 69.0127C23.7416 68.7831 25.278 68.9377 27.113 68.3237C28.948 67.7098 30.6337 67.4801 32.3194 67.2505C33.5428 66.8412 34.6168 66.8162 35.6764 65.4586C36.5867 64.4854 38.1232 64.6401 39.1972 64.6151C39.8089 64.4104 40.7335 64.7697 41.3452 64.565C42.4193 64.54 43.6426 64.1307 44.5674 64.49C45.0297 64.6697 45.0298 64.6697 45.6415 64.4651C48.4012 64.2104 51.6232 64.1353 54.5322 63.4964C55.1439 63.2917 56.2181 63.2668 56.6804 63.4464C57.1428 63.6261 57.1427 63.6261 57.7544 63.4214C62.4984 62.1685 67.7193 62.4278 72.4634 61.1749C73.0751 60.9702 73.6867 60.7656 74.2984 60.5609C75.8348 60.7155 77.0582 60.3063 77.9684 59.333C79.3411 58.5394 80.5645 58.1302 82.5633 58.4645C84.0997 58.6191 85.1737 58.5941 86.397 58.1848C88.232 57.5708 90.5294 57.1365 92.8268 56.7022C94.0501 56.2929 95.2735 55.8836 96.1838 54.9104C95.8708 54.3465 95.4084 54.1668 94.7968 54.3715C92.6487 54.4215 90.5006 54.4715 88.2032 54.9058C86.5175 55.1355 84.3694 55.1855 82.6837 55.4151C82.072 55.6197 80.5356 55.4651 79.6109 55.1058C78.2238 54.5669 77.1498 54.5919 76.0758 54.6169C75.0018 54.6419 74.3901 54.8466 73.3161 54.8716C72.8537 54.6919 72.2419 54.8966 71.9289 54.3326C71.1535 53.589 70.0795 53.614 69.7809 54.3826C68.7213 55.7401 66.7225 55.4059 65.0368 55.6356C63.0236 53.9688 60.89 55.3512 59.0405 54.6327C58.5781 54.453 58.4288 54.8373 57.9664 54.6577C53.2223 55.9106 48.3145 56.2152 43.7198 57.0838C43.1081 57.2885 42.6458 57.1088 42.1834 56.9292C38.4845 55.492 34.9638 56.3357 31.9055 57.3589C31.2938 57.5635 31.2937 57.5635 30.6821 57.7682C28.6833 57.4339 26.9976 57.6636 25.3119 57.8932C22.5521 58.1479 20.2548 58.5822 17.495 58.8368C15.8093 59.0665 14.1237 59.2962 12.751 60.0897C12.6017 60.474 12.1393 60.2944 11.0652 60.3194C10.7522 59.7554 10.9016 59.3712 10.5885 58.8072C10.1117 57.2951 9.48558 56.1672 8.2478 55.244C6.86072 54.705 7.15929 53.9364 7.92027 53.3475C11.8889 51.351 12.5006 51.1464 17.5578 50.4574C20.4668 49.8184 23.689 49.7434 26.598 49.1045C28.2837 48.8748 29.9694 48.6452 31.6551 48.4155C32.2668 48.2108 32.7292 48.3905 33.1916 48.5702C33.654 48.7498 34.728 48.7248 35.3396 48.5202C37.324 47.5219 39.785 48.0358 41.9331 47.9858C43.0071 47.9608 43.6188 47.7562 44.6928 47.7312C46.5278 47.1172 48.6759 47.0672 50.824 47.0172C51.898 46.9922 53.5838 46.7626 54.6578 46.7376C55.1202 46.9172 55.2694 46.5329 55.8811 46.3282C59.2669 47.2014 62.4747 45.7939 65.6968 45.7189C67.2332 45.8736 69.0682 45.2596 70.2915 44.8503C73.2006 44.2114 76.1097 43.5724 79.3318 43.4974C83.1655 43.2178 87.1487 42.5538 90.9824 42.2741C91.5941 42.0695 92.6681 42.0445 93.2798 41.8398C96.8005 40.9962 99.7095 40.3573 103.543 40.0776C105.229 39.8479 106.602 39.0544 107.661 37.6968C107.811 37.3125 107.96 36.9282 107.647 36.3643C107.334 35.8004 107.021 35.2364 106.708 34.6725C99.6519 35.0272 92.4467 35.7662 85.3908 36.1208C84.3168 36.1458 83.7051 36.3505 82.6311 36.3755C80.3337 36.8098 77.574 37.0645 74.8142 37.3191C72.0545 37.5738 69.757 38.008 66.9973 38.2627C66.3856 38.4673 65.3116 38.4924 64.8492 38.3127C59.479 38.4377 54.5713 38.7424 49.5142 39.4314C47.2168 39.8657 45.0686 39.9157 42.9206 39.9657C40.1608 40.2203 37.8635 40.6546 35.1037 40.9093C32.344 41.164 30.0466 41.5983 27.1376 42.2372C25.4519 42.4669 23.7661 42.6965 22.5427 43.1058C21.4398 40.4658 20.9775 40.2861 18.6657 39.3879C17.741 39.0286 17.2786 38.849 16.2046 38.874C13.7579 39.6926 10.8344 38.999 8.53703 39.4333C7.31369 39.8426 5.62794 40.0722 4.71765 41.0455C3.95666 41.6344 2.73334 42.0437 1.97236 42.6327C0.108484 40.5816 0.0941165 39.2491 2.07845 38.2508C2.69012 38.0462 3.30174 37.8415 3.91342 37.6368C4.6744 37.0479 5.13673 37.2275 6.21077 37.2025C7.74716 37.3572 8.82123 37.3322 9.58221 36.7432C10.8056 36.334 11.5666 35.745 12.9537 36.2839C13.8784 36.6432 14.7887 35.67 15.4003 35.4653C16.1613 34.8764 17.2353 34.8514 18.1601 35.2107C18.6224 35.3903 19.2342 35.1857 19.2342 35.1857C20.6068 34.3921 22.1432 34.5467 23.8289 34.3171C26.4393 34.4467 28.8861 33.6282 31.1835 33.1938C32.4068 32.7846 33.7794 31.9909 35.152 31.1973C35.7637 30.9927 35.9131 30.6084 36.5247 30.4038C38.8221 29.9695 41.2832 30.4834 43.7443 30.9973C44.669 31.3566 45.5938 31.7159 46.2054 31.5112C47.7418 31.6659 49.7406 32.0002 51.5756 31.3862C53.873 30.9519 56.6327 30.6972 59.2431 30.8269C60.9289 30.5972 62.4654 30.7519 64.1511 30.5223C65.8368 30.2926 67.3731 30.4472 69.0589 30.2176C70.7446 29.9879 72.4302 29.7583 73.8029 28.9647C74.4145 28.76 74.7132 27.9914 74.8625 27.6072C72.2376 26.145 69.9403 26.5793 67.7922 26.6293C67.1806 26.8339 66.1065 26.859 65.6442 26.6793C65.0325 26.884 64.5701 26.7043 64.1077 26.5247C64.4063 25.7561 64.7049 24.9875 64.8543 24.6032C66.54 24.3735 68.2257 24.1439 69.9114 23.9142C71.1347 23.5049 72.8349 24.6078 74.2076 23.8142C76.2063 24.1485 77.7283 22.9706 79.8764 22.9206C82.0245 22.8706 84.0232 23.2049 85.7089 22.9753C87.3947 22.7456 89.0803 22.5159 90.766 22.2863C91.3777 22.0816 91.9893 21.877 92.4517 22.0566C94.4505 22.3909 95.8232 21.5973 96.8828 20.2398C96.5697 19.6759 96.719 19.2916 96.5553 18.3433C97.4655 17.3701 98.5396 17.3451 99.7629 16.9358C100.375 16.7311 100.986 16.5265 101.449 16.7062C102.523 16.6812 102.821 15.9125 102.658 14.9643C99.7196 12.9382 99.7197 12.9383 96.8251 14.9097C99.1369 15.808 98.0628 15.8329 96.9887 15.8579ZM509.868 203.699L509.718 204.084C509.256 203.904 509.405 203.52 509.868 203.699C510.479 203.495 510.479 203.495 510.479 203.495C510.017 203.315 509.868 203.699 509.868 203.699ZM470.757 35.908C469.833 35.5487 469.37 35.3691 468.445 35.0098C467.983 34.8302 467.371 35.0348 467.222 35.4191C467.073 35.8034 467.535 35.983 467.998 36.1627C469.235 37.0859 470.309 37.0609 470.757 35.908C471.22 36.0877 471.22 36.0877 471.369 35.7034C471.22 36.0877 471.22 36.0877 470.757 35.908ZM20.2424 213.385C20.8541 213.18 21.3165 213.36 21.9282 213.155C24.3749 212.336 26.21 211.722 28.6567 210.904C31.715 209.881 34.4602 208.293 38.1447 208.398C39.2187 208.373 40.5914 207.579 41.8148 207.17C42.4264 206.965 43.1875 206.377 43.7992 206.172C46.8575 205.149 49.7665 204.51 53.2872 203.666C53.8989 203.461 54.0483 203.077 54.8093 202.488C54.3469 202.309 53.4222 201.949 53.4222 201.949C52.8106 202.154 52.1988 202.359 51.5871 202.563C50.8261 203.152 50.2145 203.357 49.1405 203.382C48.0664 203.407 47.4547 203.611 46.3807 203.636C44.695 203.866 43.0093 204.096 41.1743 204.71C40.1147 206.067 38.5782 205.913 36.8925 206.142C36.4302 205.963 35.8186 206.167 35.6693 206.552C31.3876 207.984 27.1059 209.417 23.2865 211.029C22.6748 211.233 21.9138 211.822 21.1528 212.411C20.0787 212.436 20.3917 213 20.2424 213.385C19.6308 213.589 19.6308 213.589 20.2424 213.385C20.0931 213.769 19.6308 213.589 20.2424 213.385ZM172.585 307.517C172.585 307.517 172.436 307.902 172.585 307.517C172.585 307.517 172.436 307.902 172.585 307.517C173.659 307.492 174.271 307.288 175.345 307.263C176.27 307.622 176.881 307.417 177.493 307.213C181.476 306.549 185.623 306.833 189.77 307.117C190.232 307.297 190.844 307.092 191.455 306.888C192.679 306.478 193.753 306.453 194.976 306.044C196.2 305.635 196.2 305.635 195.872 303.738C195.41 303.559 194.485 303.199 194.023 303.02C193.56 302.84 193.098 302.66 192.949 303.045C192.038 304.018 190.04 303.684 188.816 304.093C184.52 304.193 180.224 304.293 175.928 304.393C174.854 304.418 174.242 304.623 173.168 304.648C172.556 304.852 172.094 304.673 171.482 304.877C170.871 305.082 170.721 305.466 171.034 306.03C172.123 307.338 172.585 307.517 172.585 307.517ZM276.829 13.1944C278.053 12.7851 279.739 12.5555 280.962 12.1462C281.574 11.9415 282.185 11.7368 282.647 11.9165C285.72 12.2258 288.316 11.0229 290.763 10.2043C291.837 10.1793 292.598 9.59032 293.672 9.56532C296.745 9.87461 299.803 8.85136 302.712 8.21241C304.398 7.98276 306.233 7.36881 308.068 6.75486C308.68 6.55021 308.829 6.16592 308.516 5.60198C308.665 5.21769 307.89 4.47412 307.278 4.67877C305.742 4.52414 303.594 4.57413 301.908 4.80379C300.685 5.21309 298.999 5.44278 297.313 5.67243C295.628 5.90207 294.255 6.69563 292.718 6.54099C292.256 6.36135 291.033 6.77065 290.421 6.9753C289.048 7.76889 287.974 7.79388 286.438 7.63923C285.364 7.66424 284.902 7.48461 283.678 7.8939C281.843 8.50785 279.546 8.94215 277.711 9.55609C277.099 9.76074 276.488 9.96542 276.025 9.78577C272.803 9.86078 270.043 10.1154 266.821 10.1904C264.673 10.2404 262.376 10.6748 260.228 10.7248C258.542 10.9544 256.394 11.0044 255.021 11.798C253.186 12.412 251.5 12.6416 249.815 12.8713C246.906 13.5102 243.997 14.1491 241.237 14.4038C238.94 14.8381 237.254 15.0678 235.106 15.1178C234.032 15.1428 232.958 15.1678 232.659 15.9364C232.047 16.141 231.436 16.3457 230.973 16.166C227.751 16.2411 224.216 15.7521 221.471 17.3393C220.859 17.5439 220.859 17.544 220.247 17.7486C217.488 18.0033 214.579 18.6422 211.819 18.8969C211.207 19.1015 210.596 19.3061 209.984 19.5108C210.297 20.0747 210.61 20.6387 211.072 20.8183C213.534 21.3323 215.682 21.2822 217.979 20.8479C221.962 20.184 225.333 19.7247 229.63 19.6247C232.852 19.5497 235.611 19.295 238.207 18.0921C240.192 17.0939 242.34 17.0439 244.801 17.5578C245.726 17.9171 246.8 17.8921 247.561 17.3032C248.784 16.8939 249.246 17.0735 250.32 17.0485C252.469 16.9985 254.617 16.9484 256.302 16.7188C258.137 16.1048 259.972 15.4909 262.27 15.0566C264.567 14.6223 267.327 14.3677 269.774 13.5491C271.772 13.8834 274.532 13.6287 276.829 13.1944ZM104.55 19.6805C104.565 21.013 105.027 21.1926 105.952 21.5519C108.413 22.0658 111.336 22.7594 113.932 21.5565C115.305 20.7629 116.991 20.5333 118.84 21.2519C121.152 22.1501 122.525 21.3565 124.36 20.7425C124.971 20.5379 125.121 20.1536 125.121 20.1536C125.27 19.7693 125.419 19.385 125.419 19.385C124.957 19.2054 124.644 18.6415 124.644 18.6415C121.422 18.7165 118.2 18.7915 114.978 18.8665C114.366 19.0711 113.904 18.8915 113.441 18.7119C110.219 18.7869 107.459 19.0415 104.55 19.6805ZM119.298 35.141C120.237 36.8329 120.237 36.8329 121.161 37.1921C124.398 38.4497 128.082 38.5543 131.454 38.095C132.065 37.8903 132.677 37.6857 133.438 37.0968C134.05 36.8921 134.199 36.5078 133.886 35.9439C133.573 35.38 133.573 35.3799 133.26 34.816C131.112 34.866 129.113 34.5317 126.965 34.5817C124.355 34.4521 122.057 34.8864 119.298 35.141ZM174.647 299.472C175.287 301.933 175.287 301.933 177.898 302.062C179.434 302.217 180.97 302.372 182.656 302.142C184.342 301.912 186.49 301.862 188.176 301.633C189.25 301.608 190.011 301.019 189.698 300.455C189.385 299.891 188.609 299.147 187.535 299.172C187.073 298.993 186.923 299.377 186.461 299.197C185.387 299.222 184.313 299.247 182.627 299.477C180.942 299.707 179.256 299.936 177.556 298.833C176.482 298.858 175.408 298.883 174.647 299.472ZM130.939 18.8757C131.252 19.4397 131.714 19.6193 132.027 20.1833C133.727 21.2861 135.264 21.4408 136.95 21.2111C137.561 21.0065 138.635 20.9815 139.098 21.1611C140.485 21.7 141.708 21.2907 142.782 21.2657L143.394 21.0611C143.543 20.6768 143.842 19.9082 143.991 19.5239C143.529 19.3443 142.604 18.985 142.604 18.985C140.456 19.035 138.919 18.8803 136.771 18.9304C135.697 18.9554 134.161 18.8007 132.938 19.21C132.162 18.4664 131.55 18.6711 130.939 18.8757ZM33.9446 231.535C34.5707 232.663 35.1967 233.791 35.9721 234.534C37.9709 234.869 38.8812 233.896 39.7915 232.922C40.0901 232.154 40.3888 231.385 39.6134 230.642C38.838 229.898 38.0626 229.154 36.9885 229.179C35.7652 229.589 34.8549 230.562 33.9446 231.535ZM61.0413 211.102C58.8933 211.152 57.5062 210.613 56.1336 211.407C54.9102 211.816 53.6868 212.225 52.7621 211.866C50.4503 210.968 48.153 211.402 46.318 212.016C46.318 212.016 46.1686 212.4 45.557 212.605C46.0193 212.784 46.4818 212.964 46.4818 212.964C48.6298 212.914 50.1662 213.069 51.8519 212.839C52.926 212.814 54.1492 212.405 55.0739 212.764C56.6103 212.919 57.8337 212.509 59.5194 212.28C60.1311 212.075 60.2804 211.691 61.0413 211.102ZM296.225 4.36487C294.525 3.262 293.138 2.72306 291.452 2.95272C290.229 3.36202 289.468 3.95098 289.02 5.10386C289.482 5.28351 290.407 5.64279 291.018 5.43814C292.555 5.59278 293.778 5.18346 296.225 4.36487ZM442.789 32.5606C441.551 31.6373 440.015 31.4827 438.792 31.892C438.329 31.7124 438.493 32.6606 438.344 33.0449C438.194 33.4292 438.507 33.9931 439.119 33.7885C440.506 34.3274 441.73 33.9181 442.789 32.5606ZM451.752 38.2546C451.901 37.8703 451.126 37.1267 450.664 36.947C450.052 37.1517 449.44 37.3563 448.829 37.561C448.217 37.7656 448.381 38.7139 448.843 38.8935C450.081 39.8167 451.304 39.4074 451.752 38.2546ZM157.477 17.6867C156.239 16.7634 155.016 17.1728 153.479 17.0181C153.017 16.8385 151.943 16.8635 151.793 17.2478C151.957 18.196 152.718 17.607 153.181 17.7867C155.492 18.6849 156.716 18.2756 157.477 17.6867ZM445.104 147.133C444.03 147.158 443.567 146.978 442.956 147.183L442.657 147.951C442.657 147.951 442.97 148.515 443.433 148.695C444.357 149.054 444.656 148.285 445.104 147.133ZM539.916 229.086C540.229 229.65 540.542 230.214 541.004 230.393C541.467 230.573 541.929 230.753 542.079 230.368C542.228 229.984 542.377 229.6 542.377 229.6C542.377 229.6 542.064 229.036 541.602 228.856C540.99 229.061 540.528 228.881 539.916 229.086ZM132.133 15.8014C131.209 15.4421 130.284 15.0828 128.911 15.8764C130.91 16.2107 130.91 16.2107 132.133 15.8014ZM149.824 19.5785C149.197 18.4507 148.123 18.4757 147.512 18.6803C147.512 18.6803 147.362 19.0646 147.213 19.4489C147.213 19.4489 147.526 20.0129 147.989 20.1925C148.6 19.9878 149.212 19.7832 149.824 19.5785ZM213.105 10.1082C213.254 9.72387 213.254 9.72386 212.792 9.54422L212.33 9.36456L212.18 9.74885C212.643 9.92849 212.643 9.92851 213.105 10.1082ZM178.803 314.799L178.191 315.003C178.191 315.003 178.191 315.003 178.654 315.183C178.654 315.183 178.654 315.183 178.803 314.799C179.116 315.363 178.803 314.799 178.803 314.799ZM488.794 29.2046C488.794 29.2046 488.332 29.025 488.183 29.4093L488.033 29.7935L488.496 29.9732C489.107 29.7686 489.107 29.7686 488.794 29.2046ZM447.143 37.7907C446.994 38.175 446.994 38.175 447.143 37.7907C446.531 37.9953 446.531 37.9953 446.531 37.9953L446.994 38.175C447.456 38.3546 447.456 38.3546 447.143 37.7907ZM75.1012 148.892L74.6388 148.712C74.6388 148.712 74.6389 148.712 74.1766 148.533C74.6389 148.712 74.4895 149.096 75.1012 148.892C74.9519 149.276 75.1012 148.892 75.1012 148.892Z" fill="#F4F5F7"/>
</svg>